<?xml version="1.0" standalone="no"?>
<!DOCTYPE svg PUBLIC "-//W3C//DTD SVG 20010904//EN"
 "http://www.w3.org/TR/2001/REC-SVG-20010904/DTD/svg10.dtd">
<svg version="1.0" xmlns="http://www.w3.org/2000/svg"
 width="1280.000000pt" height="960.000000pt" viewBox="230 -220 1280.000000 960.000000"
 preserveAspectRatio="xMidYMid meet">

<g transform="translate(0.000000,960.000000) scale(0.150000,-0.150000)"
fill="#000000" stroke="none">
<path d="M7735 8934 c-463 -18 -817 -64 -1180 -155 -644 -161 -1170 -415
-1672 -809 -138 -108 -464 -434 -572 -571 -487 -622 -759 -1302 -866 -2164
-47 -384 -47 -941 0 -1325 105 -846 398 -1559 875 -2129 118 -141 339 -358
475 -467 647 -516 1450 -803 2452 -874 193 -14 774 -14 963 0 365 26 732 79
1000 143 186 45 370 105 376 122 3 7 -3 67 -14 132 -11 65 -66 388 -122 718
-55 330 -105 610 -110 623 -6 13 -15 20 -20 17 -6 -3 -14 5 -19 19 l-10 24
-63 -19 c-419 -130 -1092 -200 -1538 -160 -565 51 -1040 252 -1366 576 -361
359 -585 852 -668 1470 -52 386 -43 866 25 1245 126 709 455 1254 965 1596
111 74 335 187 464 235 255 93 526 139 865 146 417 9 764 -41 1115 -162 199
-69 208 -71 228 -59 13 8 63 198 194 730 97 395 177 730 178 744 0 33 -28 56
-109 90 -335 138 -877 235 -1416 255 -308 11 -351 12 -430 9z"/>
</g>
</svg>
