<?xml version="1.0" standalone="no"?>
<!DOCTYPE svg PUBLIC "-//W3C//DTD SVG 20010904//EN"
 "http://www.w3.org/TR/2001/REC-SVG-20010904/DTD/svg10.dtd">
<svg version="1.0" xmlns="http://www.w3.org/2000/svg"
 width="1280.000000pt" height="960.000000pt" viewBox="370 -220 1280.000000 960.000000"
 preserveAspectRatio="xMidYMid meet">

<g transform="translate(0.000000,960.000000) scale(0.150000,-0.150000)"
fill="#000000" stroke="none">
<path d="M3117 8823 c-4 -3 -7 -1868 -7 -4144 l0 -4137 83 -7 c45 -3 519 -5
1052 -3 l970 3 5 1677 c4 1357 7 1679 18 1690 10 10 252 14 1252 16 l1240 2 0
-1689 0 -1689 83 -7 c45 -3 519 -5 1052 -3 l970 3 3 4122 c2 4114 2 4122 -18
4133 -11 6 -20 17 -20 25 0 13 -130 15 -1032 13 l-1033 -3 -3 -1602 -2 -1603
-1224 0 c-673 0 -1238 3 -1255 6 l-31 7 0 1573 c0 1563 0 1573 -20 1584 -11 6
-20 17 -20 25 0 13 -132 15 -1028 15 -566 0 -1032 -3 -1035 -7z"/>
</g>
</svg>
