<?xml version="1.0" encoding="iso-8859-1"?>
<!-- Generator: Adobe Illustrator 19.0.0, SVG Export Plug-In . SVG Version: 6.00 Build 0)  -->
<svg version="1.1" id="Layer_1" xmlns="http://www.w3.org/2000/svg" xmlns:xlink="http://www.w3.org/1999/xlink" x="0px" y="0px"
	 viewBox="0 0 431.504 431.504" style="enable-background:new 0 0 431.504 431.504;" xml:space="preserve">
<g>
	<g>
		<path d="M360.737,0.894h-77.112c-2.508,0-4.85,1.253-6.24,3.34l-14.446,21.669h-14.643C244.882,11.086,231.592,0,215.752,0
			c-15.84,0-29.13,11.086-32.544,25.903h-14.643L154.12,4.234c-1.391-2.086-3.732-3.34-6.24-3.34H70.768c-4.142,0-7.5,3.358-7.5,7.5
			c0,4.142,3.358,7.5,7.5,7.5h46.852l-3.241,9.007H85.818c-4.142,0-7.5,3.358-7.5,7.5c0,4.142,3.358,7.5,7.5,7.5h33.833
			c3.163,0,5.986-1.984,7.057-4.96l6.854-19.047h10.304l14.446,21.669c1.391,2.086,3.732,3.34,6.24,3.34h18.657
			c2.858,12.404,12.639,22.184,25.043,25.042v38.559h-10c-4.142,0-7.5,3.358-7.5,7.5v37.378
			c-13.466,8.382-22.452,23.312-22.452,40.308v167.426h-19.495c-4.142,0-7.5,3.358-7.5,7.5c0,4.142,3.358,7.5,7.5,7.5H175.8
			c4.142,0,7.5-3.358,7.5-7.5v-58.367h8.755v102.755c0,12.407,10.093,22.5,22.5,22.5h2.394c12.407,0,22.5-10.093,22.5-22.5V306.249
			h16.255c4.142,0,7.5-3.358,7.5-7.5v-42.17h19.495c4.142,0,7.5-3.358,7.5-7.5c0-4.142-3.358-7.5-7.5-7.5h-19.495V189.69
			c0-16.995-8.986-31.925-22.452-40.307v-37.379c0-4.142-3.358-7.5-7.5-7.5h-10V65.946c12.404-2.858,22.184-12.638,25.043-25.042
			h18.657c2.508,0,4.85-1.253,6.24-3.34l14.446-21.669h10.304l6.854,19.047c1.071,2.976,3.894,4.96,7.057,4.96h33.833
			c4.142,0,7.5-3.358,7.5-7.5c0-4.142-3.358-7.5-7.5-7.5h-28.561l-3.241-9.007h46.852c4.142,0,7.5-3.358,7.5-7.5
			C368.236,4.253,364.879,0.894,360.737,0.894z M224.449,409.004c0,4.136-3.364,7.5-7.5,7.5h-2.394c-4.136,0-7.5-3.364-7.5-7.5
			v-220.51c0-4.136,3.364-7.5,7.5-7.5h2.394c4.136,0,7.5,3.364,7.5,7.5V409.004z M248.204,189.69v101.559h-8.755V188.494
			c0-12.407-10.093-22.5-22.5-22.5h-2.394c-12.407,0-22.5,10.093-22.5,22.5v102.755H183.3V189.69
			c0-17.894,14.558-32.452,32.452-32.452S248.204,171.796,248.204,189.69z M225.752,119.505v23.803c-3.226-0.695-6.569-1.07-10-1.07
			c-3.431,0-6.774,0.375-10,1.07v-23.803H225.752z M234.152,33.441c-0.021,10.118-8.248,18.344-18.366,18.362
			c-0.011,0-0.022-0.002-0.034-0.002c-0.012,0-0.022,0.002-0.034,0.002c-10.119-0.019-18.346-8.244-18.367-18.362
			c0-0.013,0.002-0.025,0.002-0.038s-0.002-0.026-0.002-0.039C197.373,23.235,205.618,15,215.752,15
			c10.134,0,18.379,8.235,18.4,18.364c0,0.013-0.002,0.026-0.002,0.039S234.152,33.428,234.152,33.441z"/>
	</g>
</g>
<g>
</g>
<g>
</g>
<g>
</g>
<g>
</g>
<g>
</g>
<g>
</g>
<g>
</g>
<g>
</g>
<g>
</g>
<g>
</g>
<g>
</g>
<g>
</g>
<g>
</g>
<g>
</g>
<g>
</g>
</svg>
